<?xml version="1.0" encoding="UTF-8" standalone="no"?>
<!-- Created with Inkscape (http://www.inkscape.org/) -->

<svg
   xmlns:dc="http://purl.org/dc/elements/1.1/"
   xmlns:cc="http://creativecommons.org/ns#"
   xmlns:rdf="http://www.w3.org/1999/02/22-rdf-syntax-ns#"
   xmlns:svg="http://www.w3.org/2000/svg"
   xmlns="http://www.w3.org/2000/svg"
   xmlns:sodipodi="http://sodipodi.sourceforge.net/DTD/sodipodi-0.dtd"
   xmlns:inkscape="http://www.inkscape.org/namespaces/inkscape"
   width="210mm"
   height="297mm"
   viewBox="0 0 744.09448819 1052.3622047"
   id="svg2"
   version="1.1"
   inkscape:version="0.91 r13725"
   sodipodi:docname="drawing.svg">
  <defs
     id="defs4">
    <filter
       inkscape:collect="always"
       style="color-interpolation-filters:sRGB"
       id="filter4173"
       x="-0.03944268"
       width="1.0788854"
       y="-0.033110052"
       height="1.0662201">
      <feGaussianBlur
         inkscape:collect="always"
         stdDeviation="9.4563693"
         id="feGaussianBlur4175" />
    </filter>
  </defs>
  <sodipodi:namedview
     id="base"
     pagecolor="#ffffff"
     bordercolor="#666666"
     borderopacity="1.0"
     inkscape:pageopacity="0.0"
     inkscape:pageshadow="2"
     inkscape:zoom="0.35000001"
     inkscape:cx="224.42124"
     inkscape:cy="372.80382"
     inkscape:document-units="px"
     inkscape:current-layer="layer1"
     showgrid="false"
     inkscape:window-width="1280"
     inkscape:window-height="923"
     inkscape:window-x="0"
     inkscape:window-y="28"
     inkscape:window-maximized="1" />
  <metadata
     id="metadata7">
    <rdf:RDF>
      <cc:Work
         rdf:about="">
        <dc:format>image/svg+xml</dc:format>
        <dc:type
           rdf:resource="http://purl.org/dc/dcmitype/StillImage" />
        <dc:title />
      </cc:Work>
    </rdf:RDF>
  </metadata>
  <g
     inkscape:label="Layer 1"
     inkscape:groupmode="layer"
     id="layer1">
    <rect
       style="fill:#161650;stroke:#ffffff;stroke-width:1.14468563"
       id="rect3341"
       width="778.10394"
       height="1093.0248"
       x="-17.004755"
       y="-20.331284"
       inkscape:export-xdpi="100"
       inkscape:export-ydpi="100" />
    <path
       sodipodi:type="star"
       style="fill:#162d50;stroke:none;stroke-width:6.23414087"
       id="path3345"
       sodipodi:sides="27"
       sodipodi:cx="371.56082"
       sodipodi:cy="525.69469"
       sodipodi:r1="299.03122"
       sodipodi:r2="284.07971"
       sodipodi:arg1="1.8325957"
       sodipodi:arg2="1.948951"
       inkscape:flatsided="false"
       inkscape:rounded="0.29"
       inkscape:randomized="0"
       d="m 294.16585,814.53668 c -10.37699,-2.78051 -17.50497,-20.8668 -27.489,-24.8332 -9.98403,-3.9664 -27.5803,4.29758 -37.03635,-0.80108 -9.45605,-5.09866 -12.22091,-24.34126 -21.02111,-30.50322 -8.80019,-6.16196 -27.82795,-2.17872 -35.85328,-9.32066 -8.02534,-7.14194 -6.27802,-26.50347 -13.41996,-34.5288 -7.14193,-8.02533 -26.5754,-8.53756 -32.73736,-17.33775 -6.16196,-8.8002 0.003,-27.23688 -5.09533,-36.69293 -5.09865,-9.45605 -23.890159,-14.43614 -27.85656,-24.42017 -3.966402,-9.98403 6.284498,-26.50193 3.503991,-36.87893 C 94.380384,588.84295 77.243893,579.66348 75.686882,569.03386 74.129871,558.40423 87.913748,544.69559 87.60129,533.95708 87.288831,523.21857 72.731187,510.33459 73.667506,499.63242 74.603825,488.93024 91.177586,478.7699 93.35002,468.24879 95.522454,457.72768 84.328464,441.83377 87.707635,431.636 c 3.379172,-10.19776 21.849325,-16.26206 26.389535,-25.99857 4.54021,-9.73651 -2.68666,-27.78352 2.95319,-36.92711 5.63986,-9.14359 25.01066,-10.78492 31.67389,-19.21194 6.66322,-8.42702 3.79308,-27.65419 11.38957,-35.25068 7.59648,-7.59649 26.82366,-4.72635 35.25068,-11.38957 8.42702,-6.66323 10.06834,-26.03403 19.21193,-31.67388 9.14359,-5.63985 27.1906,1.58701 36.92712,-2.9532 9.73651,-4.54021 15.8008,-23.01036 25.99857,-26.38953 10.19776,-3.37917 26.09168,7.81482 36.61279,5.64238 10.52111,-2.17243 20.68145,-18.74619 31.38362,-19.68251 10.70217,-0.93632 23.58616,13.62132 34.32467,13.93378 10.73851,0.31246 24.44714,-13.47142 35.07677,-11.91441 10.62962,1.55701 19.8091,18.6935 30.18609,21.47401 10.37699,2.78051 26.89489,-7.47039 36.87892,-3.50399 9.98403,3.9664 14.96413,22.75791 24.42018,27.85656 9.45605,5.09866 27.89273,-1.06664 36.69292,5.09532 8.80019,6.16197 9.31243,25.59544 17.33776,32.73738 8.02533,7.14193 27.38686,5.39461 34.5288,13.41994 7.14194,8.02533 3.1587,27.0531 9.32066,35.85329 6.16196,8.8002 25.40456,11.56505 30.50321,21.0211 5.09866,9.45605 -3.16531,27.05232 0.80109,37.03636 3.9664,9.98403 22.05269,17.112 24.8332,27.48899 2.78051,10.377 -9.31869,25.59316 -7.76168,36.22278 1.55701,10.62963 17.51196,21.73645 17.82442,32.47496 0.31245,10.73851 -14.9697,22.75425 -15.90602,33.45642 -0.93631,10.70217 12.02716,25.18908 9.85472,35.71019 -2.17243,10.52111 -19.81367,18.68865 -23.19284,28.88642 -3.37917,10.19776 5.89396,27.28375 1.35375,37.02026 -4.54022,9.73652 -23.5895,13.61555 -29.22935,22.75915 -5.63985,9.14359 -0.55698,27.90756 -7.2202,36.33457 -6.66323,8.42702 -26.0936,7.80844 -33.69009,15.40492 -7.59648,7.59649 -6.97789,27.02686 -15.40491,33.69008 -8.42702,6.66323 -27.19099,1.58036 -36.33458,7.22021 -9.14359,5.63985 -13.02263,24.68913 -22.75914,29.22934 -9.73652,4.54021 -26.82251,-4.73291 -37.02028,-1.35374 -10.19776,3.37917 -18.3653,21.02041 -28.88641,23.19284 -10.52111,2.17244 -25.00802,-10.79103 -35.71019,-9.85471 -10.70217,0.93631 -22.71791,16.21847 -33.45641,15.90601 -10.73851,-0.31246 -21.84534,-16.26741 -32.47497,-17.82442 -10.62962,-1.55701 -25.84578,10.54219 -36.22277,7.76168 z"
       inkscape:transform-center-x="23.916348"
       inkscape:transform-center-y="4.836127"
       inkscape:export-xdpi="100"
       inkscape:export-ydpi="100" />
    <path
       sodipodi:nodetypes="csccccc"
       inkscape:connector-curvature="0"
       id="path4147"
       d="M 278.5553,244.00564 C 100.91538,309.6698 10.141521,506.90713 75.806622,684.54671 141.47124,862.18789 338.71075,952.96153 516.35092,887.29418 558.38517,871.65409 596.94311,847.92021 629.84077,817.43688 472.57208,814.8042 326.11745,733.33314 277.01591,600.83339 c -45.99273,-124.6493 3.66362,-273.66721 107.62259,-377.623 -36.23813,1.27941 -72.04401,8.29836 -106.0832,20.79525 z"
       style="opacity:0.325;fill:none;fill-rule:evenodd;stroke:#ffffff;stroke-width:5;stroke-linecap:round;stroke-linejoin:round;stroke-miterlimit:4;stroke-dasharray:10, 5, 2.5, 5;stroke-dashoffset:0;stroke-opacity:1;filter:url(#filter4173)"
       transform="matrix(0.59063717,0,0,0.59063717,169.96594,191.91863)"
       inkscape:export-xdpi="100"
       inkscape:export-ydpi="100" />
    <path
       style="fill:#ffcc00;fill-rule:evenodd;stroke:none;stroke-width:2.66357541;stroke-linecap:round;stroke-linejoin:round;stroke-miterlimit:4;stroke-dasharray:none;stroke-opacity:1"
       d="m 334.49106,336.03741 c -104.92074,38.78368 -158.53514,155.27939 -119.7509,260.19992 38.78397,104.92148 155.28094,158.5358 260.20183,119.75018 24.82698,-9.23758 47.60073,-23.25572 67.03133,-41.26031 -92.88875,-1.55496 -179.39029,-49.67478 -208.39148,-127.93406 -27.16501,-73.62251 2.16386,-161.63803 63.56591,-223.03817 -21.4036,0.75566 -42.55189,4.90131 -62.65669,12.28244 z"
       id="path3336"
       inkscape:connector-curvature="0"
       sodipodi:nodetypes="csccccc"
       inkscape:export-xdpi="100"
       inkscape:export-ydpi="100" />
  </g>
</svg>
